<svg width="15" height="18" viewBox="0 0 15 18" fill="none" xmlns="http://www.w3.org/2000/svg">
<path d="M10.8412 4.84577V4.31569C10.8412 2.43441 9.34575 0.9 7.50252 0.9C5.65929 0.9 4.15883 2.43958 4.15883 4.32085V4.85094H2C1.39249 4.85094 0.9 5.34342 0.9 5.95094V14.805C0.9 16.0664 1.9009 17.1 3.14397 17.1H11.856C13.0938 17.1 14.1 16.0719 14.1 14.805L14.1 14.8048L14.0754 5.94272C14.0737 5.3364 13.5817 4.84577 12.9754 4.84577H10.8412ZM12.9819 5.98573V14.805C12.9819 15.4441 12.4746 15.96 11.856 15.96H3.14397C2.52542 15.96 2.01812 15.4441 2.01812 14.805V5.98573H4.16754C4.21412 6.25048 4.44211 6.45571 4.71789 6.45571C4.99367 6.45571 5.22165 6.25048 5.26824 5.98573H9.7368C9.78339 6.25048 10.0114 6.45571 10.2872 6.45571C10.5629 6.45571 10.7909 6.25048 10.8375 5.98573H12.9819ZM7.49748 2.03996C8.72138 2.03996 9.72305 3.06204 9.72305 4.32085V4.85094H5.2719L5.2719 4.32124C5.2719 4.32119 5.2719 4.32115 5.2719 4.32111C5.27681 3.05668 6.27382 2.03996 7.49748 2.03996Z" fill="#333333" stroke="#333333" stroke-width="0.2"/>
</svg>
