<svg width="17" height="20" viewBox="0 0 17 20" fill="none" xmlns="http://www.w3.org/2000/svg">
<path d="M4.26154 4.15106V4.93867H0.600311C0.27047 4.93867 0 5.20336 0 5.52615V17.2563C0 18.7669 1.2534 20 2.80365 20H14.1964C15.74 20 17 18.7734 17 17.2563V5.51969C17 5.1969 16.7295 4.93221 16.3997 4.93221H12.7385V4.14461C12.7385 1.85926 10.8386 0 8.5033 0C6.16803 0 4.26154 1.86572 4.26154 4.15106ZM15.7994 6.10717V17.2563C15.7994 18.1214 15.0803 18.8251 14.1964 18.8251H2.80365C1.91967 18.8251 1.20062 18.1214 1.20062 17.2563V6.10717H4.26154C4.26154 6.42995 4.53201 6.69464 4.86185 6.69464C5.1917 6.69464 5.46217 6.42995 5.46217 6.10717H11.5444C11.5444 6.42995 11.8149 6.69464 12.1447 6.69464C12.4746 6.69464 12.7451 6.42995 12.7451 6.10717H15.7994ZM8.4967 1.17495C10.1723 1.17495 11.5378 2.5113 11.5378 4.15106V4.93867H5.45557V4.15106C5.46217 2.50484 6.82111 1.17495 8.4967 1.17495Z" fill="#616161"/>
</svg>
