<svg width="13" height="14" viewBox="0 0 13 14" fill="none" xmlns="http://www.w3.org/2000/svg">
<path fill-rule="evenodd" clip-rule="evenodd" d="M0.921266 1.0581C0.726281 0.862557 0.406104 0.85842 0.206132 1.04885C0.00615915 1.23929 0.00211612 1.55218 0.197101 1.74772L5.43627 7.00176L0.212262 12.2346C0.0171643 12.43 0.0210269 12.7429 0.22089 12.9334C0.420753 13.124 0.740932 13.12 0.93603 12.9246L6.14219 7.70968L11.2289 12.8108C11.4239 13.0064 11.7441 13.0105 11.9441 12.8201C12.144 12.6297 12.1481 12.3168 11.9531 12.1212L6.84852 7.00217L11.9634 1.87872C12.1585 1.6833 12.1546 1.3704 11.9547 1.17985C11.7549 0.9893 11.4347 0.993253 11.2396 1.18868L6.1426 6.29425L0.921266 1.0581Z" fill="#FEFEFE"/>
</svg>
