<svg width="21" height="19" viewBox="0 0 21 19" fill="none" xmlns="http://www.w3.org/2000/svg">
<path d="M10.5 18.0938C10.799 18.0938 11.0872 17.9894 11.3118 17.7999C12.1602 17.0852 12.9781 16.4136 13.6997 15.8211L13.7034 15.818C15.8191 14.0811 17.646 12.581 18.9172 11.1033C20.3381 9.4514 21 7.88513 21 6.17407C21 4.51163 20.4083 2.97793 19.3341 1.85528C18.247 0.719363 16.7554 0.09375 15.1335 0.09375C13.9213 0.09375 12.8111 0.462974 11.834 1.19108C11.3408 1.55861 10.8938 2.00841 10.5 2.53307C10.106 2.00841 9.6592 1.55861 9.16589 1.19108C8.18873 0.462974 7.07859 0.09375 5.86638 0.09375C4.24467 0.09375 2.75289 0.719363 1.66582 1.85528C0.59156 2.97793 4.00543e-05 4.51163 4.00543e-05 6.17407C4.00543e-05 7.88513 0.661736 9.4514 2.0827 11.1032C3.35386 12.581 5.18066 14.0809 7.296 15.8177C8.0189 16.4111 8.83809 17.0838 9.68836 17.8002C9.91282 17.9894 10.2012 18.0938 10.5 18.0938ZM15.1335 1.27891C16.4077 1.27891 17.5782 1.76884 18.4298 2.65856C19.294 3.56171 19.77 4.81016 19.77 6.17407C19.77 7.61315 19.2149 8.90019 17.9701 10.3471C16.7671 11.7458 14.9776 13.215 12.9057 14.9161L12.9018 14.9192C12.1775 15.514 11.3564 16.1882 10.5018 16.9081C9.64206 16.1868 8.81966 15.5115 8.09388 14.9158C6.02212 13.2146 4.23281 11.7458 3.02974 10.3471C1.78518 8.90019 1.23003 7.61315 1.23003 6.17407C1.23003 4.81016 1.70603 3.56171 2.57024 2.65856C3.42163 1.76884 4.59234 1.27891 5.86638 1.27891C6.79981 1.27891 7.65681 1.56478 8.41351 2.1285C9.08787 2.63109 9.55762 3.26643 9.83304 3.71098C9.97467 3.93958 10.224 4.07603 10.5 4.07603C10.7761 4.07603 11.0254 3.93958 11.167 3.71098C11.4423 3.26643 11.912 2.63109 12.5865 2.1285C13.3432 1.56478 14.2002 1.27891 15.1335 1.27891Z" fill="#616161"/>
</svg>
