<svg width="22" height="21" viewBox="0 0 22 21" fill="none" xmlns="http://www.w3.org/2000/svg">
<path fill-rule="evenodd" clip-rule="evenodd" d="M12.2074 0.483817C11.5312 -0.161271 10.4675 -0.161273 9.79138 0.483818L0.232284 9.60373C-0.0674134 9.88966 -0.0785757 10.3644 0.207352 10.6641C0.493279 10.9638 0.968022 10.975 1.26772 10.689L2.91493 9.1175V11.2869V17.2543C2.91493 18.7731 4.14615 20.0043 5.66493 20.0043H16.335C17.8538 20.0043 19.085 18.7731 19.085 17.2543V11.2869V9.11858L20.7311 10.689C21.0308 10.975 21.5055 10.9638 21.7915 10.6641C22.0774 10.3644 22.0662 9.88966 21.7665 9.60373L12.2074 0.483817ZM17.585 7.6875L11.172 1.56912C11.0754 1.47696 10.9234 1.47696 10.8268 1.56912L4.41493 7.68642V11.2869V17.2543C4.41493 17.9447 4.97457 18.5043 5.66493 18.5043H16.335C17.0254 18.5043 17.585 17.9447 17.585 17.2543V11.2869V7.6875Z" fill="#616161"/>
</svg>
