<svg width="12" height="12" viewBox="0 0 12 12" fill="none" xmlns="http://www.w3.org/2000/svg">
<path fill-rule="evenodd" clip-rule="evenodd" d="M7.96394 6.32685C8.81584 6.61969 9.59664 7.10343 10.2526 7.75688C11.2787 8.77899 11.8889 10.1049 11.9987 11.531C12.0186 11.7891 11.806 11.9993 11.5461 11.9993C11.5305 11.9993 11.5151 11.9985 11.4999 11.997C11.4829 11.999 11.4657 12 11.4482 12L0.606191 12C0.594941 12 0.58379 11.9996 0.57275 11.9988C0.238009 11.9853 -0.0315254 11.7102 0.0029826 11.3754C0.143839 10.0086 0.746456 8.74171 1.73507 7.75688C2.39107 7.10343 3.17187 6.61969 4.02377 6.32685C3.11134 5.70085 2.5119 4.65319 2.5119 3.46854C2.5119 1.55599 4.0739 0 5.99384 0C7.91378 0 9.47579 1.55599 9.47579 3.46854C9.47579 4.65319 8.87635 5.70085 7.96394 6.32685Z" fill="#FEFEFE"/>
</svg>
