<svg width="16" height="16" viewBox="0 0 16 16" fill="none" xmlns="http://www.w3.org/2000/svg">
<path fill-rule="evenodd" clip-rule="evenodd" d="M10.6541 4.17015C10.6541 5.65083 9.4605 6.8403 8.00155 6.8403C6.54261 6.8403 5.34905 5.65083 5.34905 4.17015C5.34905 2.68946 6.54261 1.5 8.00155 1.5C9.4605 1.5 10.6541 2.68946 10.6541 4.17015ZM10.3887 7.58276C11.4564 6.82813 12.1541 5.58095 12.1541 4.17015C12.1541 1.86704 10.2949 0 8.00155 0C5.70819 0 3.84905 1.86704 3.84905 4.17015C3.84905 5.58056 4.54628 6.82744 5.61349 7.58213C2.35937 8.60172 0 11.6512 0 15.2503C0 15.6645 0.335786 16.0003 0.75 16.0003C1.16421 16.0003 1.5 15.6645 1.5 15.2503C1.5 11.64 4.41326 8.71875 8.00012 8.71875C11.587 8.71875 14.5002 11.64 14.5002 15.2503C14.5002 15.6645 14.836 16.0003 15.2502 16.0003C15.6645 16.0003 16.0002 15.6645 16.0002 15.2503C16.0002 11.6519 13.6418 8.60296 10.3887 7.58276Z" fill="#333333"/>
</svg>
