<svg width="24" height="24" viewBox="0 0 24 24" fill="none" xmlns="http://www.w3.org/2000/svg">
<path d="M20.4844 0H3.51562C1.57727 0 0 1.57727 0 3.51562V20.4844C0 22.4227 1.57727 24 3.51562 24H20.4844C22.4227 24 24 22.4227 24 20.4844V3.51562C24 1.57727 22.4227 0 20.4844 0Z" fill="#FEFEFE"/>
<path fill-rule="evenodd" clip-rule="evenodd" d="M8.625 3H15.375C18.4811 3 21 5.51888 21 8.625V15.375C21 18.4811 18.4811 21 15.375 21H8.625C5.51888 21 3 18.4811 3 15.375V8.625C3 5.51888 5.51888 3 8.625 3ZM15.375 19.3125C17.5463 19.3125 19.3125 17.5463 19.3125 15.375V8.625C19.3125 6.45375 17.5463 4.6875 15.375 4.6875H8.625C6.45375 4.6875 4.6875 6.45375 4.6875 8.625V15.375C4.6875 17.5463 6.45375 19.3125 8.625 19.3125H15.375ZM7.5 11.9999C7.5 9.51478 9.51487 7.4999 12 7.4999C14.4851 7.4999 16.5 9.51478 16.5 11.9999C16.5 14.485 14.4851 16.4999 12 16.4999C9.51487 16.4999 7.5 14.485 7.5 11.9999ZM9.1875 11.9999C9.1875 13.5502 10.4497 14.8124 12 14.8124C13.5502 14.8124 14.8125 13.5502 14.8125 11.9999C14.8125 10.4485 13.5502 9.1874 12 9.1874C10.4497 9.1874 9.1875 10.4485 9.1875 11.9999ZM17.7269 7.46213C17.7269 8.02697 17.269 8.48486 16.7042 8.48486C16.1394 8.48486 15.6815 8.02697 15.6815 7.46213C15.6815 6.8973 16.1394 6.43941 16.7042 6.43941C17.269 6.43941 17.7269 6.8973 17.7269 7.46213Z" fill="#198CE4"/>
<path fill-rule="evenodd" clip-rule="evenodd" d="M3 8.68712C3 5.54668 5.54668 3 8.68712 3H15.3129C18.4533 3 21 5.54668 21 8.68712V15.3129C21 18.4533 18.4533 21 15.3129 21H8.68712C5.54668 21 3 18.4533 3 15.3129V8.68712ZM8.68712 3.33129C5.72964 3.33129 3.33129 5.72964 3.33129 8.68712V15.3129C3.33129 18.2704 5.72964 20.6687 8.68712 20.6687H15.3129C18.2704 20.6687 20.6687 18.2704 20.6687 15.3129V8.68712C20.6687 5.72964 18.2704 3.33129 15.3129 3.33129H8.68712ZM8.68712 4.98773C6.64731 4.98773 4.98773 6.64731 4.98773 8.68712V15.3129C4.98773 17.3527 6.64731 19.0123 8.68712 19.0123H15.3129C17.3527 19.0123 19.0123 17.3527 19.0123 15.3129V8.68712C19.0123 6.64731 17.3527 4.98773 15.3129 4.98773H8.68712ZM4.65644 8.68712C4.65644 6.46435 6.46435 4.65644 8.68712 4.65644H15.3129C17.5357 4.65644 19.3436 6.46435 19.3436 8.68712V15.3129C19.3436 17.5357 17.5357 19.3436 15.3129 19.3436H8.68712C6.46435 19.3436 4.65644 17.5357 4.65644 15.3129V8.68712ZM15.4481 7.54565C15.4481 6.89973 15.9717 6.3761 16.6176 6.3761C17.2635 6.3761 17.7872 6.89973 17.7872 7.54565C17.7872 8.19158 17.2635 8.7152 16.6176 8.7152C15.9717 8.7152 15.4481 8.19158 15.4481 7.54565ZM16.6176 6.70739C16.1547 6.70739 15.7794 7.08269 15.7794 7.54565C15.7794 8.00861 16.1547 8.38391 16.6176 8.38391C17.0806 8.38391 17.4559 8.00861 17.4559 7.54565C17.4559 7.08269 17.0806 6.70739 16.6176 6.70739ZM7.41718 11.9999C7.41718 9.46903 9.46913 7.41708 12 7.41708C14.5309 7.41708 16.5828 9.46903 16.5828 11.9999C16.5828 14.5308 14.5309 16.5827 12 16.5827C9.46913 16.5827 7.41718 14.5308 7.41718 11.9999ZM12 7.74837C9.65209 7.74837 7.74846 9.652 7.74846 11.9999C7.74846 14.3478 9.65209 16.2514 12 16.2514C14.3479 16.2514 16.2515 14.3478 16.2515 11.9999C16.2515 9.652 14.3479 7.74837 12 7.74837ZM12 9.40481C10.5697 9.40481 9.40491 10.5686 9.40491 11.9999C9.40491 13.4301 10.5698 14.595 12 14.595C13.4302 14.595 14.5951 13.4301 14.5951 11.9999C14.5951 10.5686 13.4303 9.40481 12 9.40481ZM9.07362 11.9999C9.07362 10.3856 10.3868 9.07352 12 9.07352C13.6132 9.07352 14.9264 10.3856 14.9264 11.9999C14.9264 13.6131 13.6132 14.9263 12 14.9263C10.3868 14.9263 9.07362 13.6131 9.07362 11.9999Z" fill="#198CE4"/>
</svg>
