<svg width="16" height="17" viewBox="0 0 16 17" fill="none" xmlns="http://www.w3.org/2000/svg">
<path fill-rule="evenodd" clip-rule="evenodd" d="M0 0.75C0 0.335786 0.335786 0 0.75 0H15.25C15.6642 0 16 0.335786 16 0.75C16 1.16421 15.6642 1.5 15.25 1.5H0.75C0.335786 1.5 0 1.16421 0 0.75ZM0 8.00093C0 7.58672 0.335786 7.25093 0.75 7.25093H11.25C11.6642 7.25093 12 7.58672 12 8.00093C12 8.41514 11.6642 8.75093 11.25 8.75093H0.75C0.335786 8.75093 0 8.41514 0 8.00093ZM0.75 14.5024C0.335786 14.5024 0 14.8381 0 15.2524C0 15.6666 0.335786 16.0024 0.75 16.0024H15.25C15.6642 16.0024 16 15.6666 16 15.2524C16 14.8381 15.6642 14.5024 15.25 14.5024H0.75Z" fill="#333333"/>
</svg>
