<svg width="24" height="24" viewBox="0 0 24 24" fill="none" xmlns="http://www.w3.org/2000/svg">
<rect width="24" height="24" rx="4" fill="#FEFEFE"/>
<path fill-rule="evenodd" clip-rule="evenodd" d="M7.81627 7.56962C7.80338 9.78592 9.61641 11.6203 11.8275 11.6279C14.0609 11.6356 15.8865 9.84289 15.8979 7.63112C15.9091 5.36707 14.1133 3.53535 11.876 3.52931C9.6432 3.52311 7.82899 5.32886 7.81627 7.56962ZM11.8599 5.59748C12.9573 5.59848 13.833 6.47454 13.8369 7.57499C13.8406 8.67526 12.9672 9.55702 11.8702 9.56087C10.7697 9.56489 9.88649 8.69503 9.87829 7.59878C9.86975 6.48829 10.7533 5.5963 11.8599 5.59748ZM7.75824 13.6151C8.71499 14.364 9.83248 14.6695 11.0719 14.7989C11.0382 14.8349 11.0092 14.8666 10.9828 14.8954C10.9406 14.9415 10.9051 14.9802 10.8681 15.0175C10.6915 15.1947 10.515 15.3719 10.3384 15.5491C9.60614 16.284 8.87372 17.0191 8.13967 17.7526C7.9513 17.9408 7.81634 18.1506 7.80295 18.4253C7.78352 18.8313 8.03519 19.2353 8.43068 19.4272C8.80273 19.608 9.18449 19.551 9.50531 19.2345C10.2198 18.5295 10.9301 17.8205 11.6289 17.1005C11.8038 16.9205 11.899 16.8813 12.0971 17.0886C12.5547 17.5678 13.0246 18.0352 13.4945 18.5027C13.7235 18.7306 13.9526 18.9585 14.1802 19.1877C14.3616 19.3705 14.5657 19.5009 14.8274 19.519C15.2405 19.5473 15.6617 19.2827 15.8499 18.8806C16.0221 18.5126 15.9568 18.1203 15.6442 17.8039C15.0609 17.2137 14.4748 16.6262 13.8887 16.0387C13.5528 15.702 13.2168 15.3652 12.8814 15.0279C12.8337 14.9799 12.7947 14.9373 12.7356 14.8724C12.7154 14.8503 12.6929 14.8257 12.6669 14.7974C13.3449 14.7163 14.0299 14.5941 14.6553 14.3514C15.3166 14.0947 15.9119 13.7269 16.4068 13.2185C16.7295 12.8869 16.7329 12.47 16.471 12.0428C16.2417 11.6688 15.8434 11.5118 15.4163 11.6215C15.1966 11.6782 15.007 11.7891 14.8297 11.9252C13.04 13.13 10.5905 13.0962 8.80742 11.8701C8.72001 11.8094 8.62876 11.7529 8.53298 11.7077C8.03837 11.4743 7.5625 11.583 7.27903 11.9895C6.94766 12.4646 6.98986 12.9256 7.40863 13.3281C7.49524 13.4113 7.59096 13.4854 7.68654 13.5594C7.7105 13.5779 7.73444 13.5965 7.75824 13.6151Z" fill="#198CE4"/>
</svg>
