<svg width="12" height="12" viewBox="0 0 12 12" fill="none" xmlns="http://www.w3.org/2000/svg">
<path d="M11.9943 9.47032C12.0197 9.66526 11.9603 9.83475 11.8164 9.9788L10.1269 11.6567C10.0506 11.7414 9.95114 11.8135 9.82834 11.8728C9.70554 11.9321 9.58488 11.9703 9.46635 11.9872C9.45788 11.9872 9.43242 11.9894 9.39005 11.9936C9.34777 11.9978 9.29272 12 9.22497 12C9.06401 12 8.80357 11.9725 8.44363 11.9174C8.0837 11.8622 7.64333 11.7266 7.12253 11.5106C6.6016 11.2945 6.0109 10.9703 5.35034 10.5381C4.68977 10.106 3.98682 9.51272 3.24155 8.75846C2.64871 8.17371 2.15751 7.61439 1.76793 7.08052C1.37836 6.5466 1.065 6.05296 0.82787 5.59957C0.590716 5.14618 0.412866 4.73516 0.294299 4.36652C0.175733 3.99787 0.0952767 3.68008 0.0529315 3.41313C0.0105863 3.14618 -0.00635178 2.93644 0.00211726 2.78389C0.0105863 2.63135 0.0148208 2.54661 0.0148208 2.52966C0.0317589 2.41101 0.0698696 2.29025 0.129153 2.16737C0.188436 2.04449 0.260423 1.94491 0.345113 1.86864L2.03469 0.177966C2.15325 0.0593219 2.28876 0 2.4412 0C2.5513 0 2.64869 0.0317796 2.73338 0.0953388C2.81807 0.158898 2.89006 0.237288 2.94934 0.330508L4.30863 2.91101C4.38485 3.0466 4.40602 3.19491 4.37214 3.35593C4.33827 3.51694 4.26628 3.65254 4.15618 3.76271L3.53371 4.38559C3.51677 4.40253 3.50195 4.43008 3.48924 4.46821C3.47654 4.50635 3.47019 4.53813 3.47019 4.56355C3.50407 4.74152 3.58029 4.94491 3.69885 5.17372C3.80048 5.37711 3.95716 5.62499 4.16889 5.91736C4.38061 6.20973 4.68126 6.54658 5.07084 6.92793C5.45195 7.3178 5.79071 7.62073 6.08712 7.83687C6.38348 8.05289 6.63128 8.21185 6.8303 8.31355C7.02933 8.41524 7.18177 8.47668 7.28761 8.4978L7.44636 8.5296C7.4633 8.5296 7.49089 8.52323 7.52896 8.51054C7.56707 8.4978 7.59459 8.48299 7.61155 8.46602L8.33563 7.72874C8.48816 7.59317 8.66593 7.52537 8.8692 7.52537C9.01322 7.52537 9.12749 7.55077 9.21218 7.60164H9.22486L11.6766 9.05079C11.8545 9.16104 11.9604 9.30083 11.9943 9.47032Z" fill="#FEFEFE"/>
</svg>
