<svg width="16" height="16" viewBox="0 0 16 16" fill="none" xmlns="http://www.w3.org/2000/svg">
<path fill-rule="evenodd" clip-rule="evenodd" d="M12.4647 6.94944C12.4647 9.95244 10.0169 12.3989 6.98246 12.3989C3.94805 12.3989 1.50024 9.95244 1.50024 6.94944C1.50024 3.94644 3.94805 1.5 6.98246 1.5C10.0169 1.5 12.4647 3.94644 12.4647 6.94944ZM11.0645 12.5881C9.91647 13.4129 8.50649 13.8989 6.98246 13.8989C3.12629 13.8989 0.000244141 10.7875 0.000244141 6.94944C0.000244141 3.11137 3.12629 0 6.98246 0C10.8386 0 13.9647 3.11137 13.9647 6.94944C13.9647 8.75264 13.2747 10.3954 12.1431 11.6305C12.1895 11.6597 12.2333 11.6943 12.2737 11.7345L15.2764 14.7232C15.57 15.0154 15.57 15.4892 15.2764 15.7814C14.9829 16.0736 14.5069 16.0736 14.2133 15.7814L11.2105 12.7927C11.1489 12.7314 11.1003 12.6621 11.0645 12.5881Z" fill="#333333"/>
</svg>
