<svg width="16" height="16" viewBox="0 0 16 16" fill="none" xmlns="http://www.w3.org/2000/svg">
<path d="M14.8789 14.286L11.4759 10.8838C12.3888 9.83459 12.9415 8.46563 12.9415 6.9694C12.9415 3.67583 10.2619 1 6.97073 1C3.67642 1 1 3.67894 1 6.9694C1 10.2599 3.67953 12.9388 6.97073 12.9388C8.46729 12.9388 9.83655 12.3863 10.886 11.4736L14.289 14.8758C14.3697 14.9565 14.4784 15 14.5839 15C14.6895 15 14.7982 14.9596 14.8789 14.8758C15.0404 14.7144 15.0404 14.4475 14.8789 14.286ZM1.83522 6.9694C1.83522 4.13836 4.13906 1.83814 6.96762 1.83814C9.79929 1.83814 12.1 4.14146 12.1 6.9694C12.1 9.79734 9.79929 12.1038 6.96762 12.1038C4.13906 12.1038 1.83522 9.80044 1.83522 6.9694Z" fill="#616161" stroke="#616161"/>
</svg>
