<svg width="24" height="24" viewBox="0 0 24 24" fill="none" xmlns="http://www.w3.org/2000/svg">
<rect width="24" height="24" rx="4" fill="#FEFEFE"/>
<path d="M19.8574 16.0274C19.8144 15.9564 19.5484 15.3866 18.2683 14.2153C16.9282 12.9888 17.1082 13.188 18.7223 11.0673C19.7054 9.77572 20.0984 8.98699 19.9754 8.6498C19.8584 8.32839 19.1353 8.41318 19.1353 8.41318L16.7312 8.42699C16.7312 8.42699 16.5531 8.40332 16.4201 8.48121C16.2911 8.55811 16.2081 8.73558 16.2081 8.73558C16.2081 8.73558 15.8271 9.7353 15.3191 10.5852C14.248 12.3785 13.8189 12.4732 13.6439 12.3618C13.2369 12.1025 13.3389 11.3187 13.3389 10.7626C13.3389 9.02445 13.6059 8.2998 12.8179 8.11248C12.5559 8.05037 12.3638 8.00896 11.6948 8.00206C10.8367 7.99318 10.1097 8.00501 9.69864 8.20318C9.42462 8.3353 9.21361 8.63009 9.34262 8.64685C9.50163 8.66755 9.86165 8.74248 10.0527 8.99882C10.2997 9.3291 10.2907 10.0725 10.2907 10.0725C10.2907 10.0725 10.4327 12.1183 9.95966 12.3726C9.63464 12.5471 9.1896 12.1912 8.23453 10.5635C7.7455 9.73037 7.37547 8.80854 7.37547 8.80854C7.37547 8.80854 7.30447 8.63699 7.17746 8.5453C7.02345 8.43389 6.80743 8.39839 6.80743 8.39839L4.52126 8.4122C4.52126 8.4122 4.17824 8.42206 4.05223 8.56896C3.94022 8.70009 4.04323 8.97023 4.04323 8.97023C4.04323 8.97023 5.83336 13.0983 7.85951 15.1795C9.71864 17.0873 11.8288 16.9621 11.8288 16.9621H12.7849C12.7849 16.9621 13.0739 16.9305 13.2209 16.7738C13.3569 16.6298 13.3519 16.3597 13.3519 16.3597C13.3519 16.3597 13.3329 15.0948 13.929 14.9084C14.516 14.725 15.2701 16.131 16.0691 16.6722C16.6732 17.0814 17.1322 16.9917 17.1322 16.9917L19.2693 16.9621C19.2693 16.9621 20.3874 16.8941 19.8574 16.0274Z" fill="#198CE4"/>
</svg>
