<svg width="75" height="88" viewBox="0 0 75 88" fill="none" xmlns="http://www.w3.org/2000/svg">
<path d="M41.3502 56.3387V55.9679C44.2883 54.6711 46.3709 51.9832 46.8242 48.9051C48.063 48.4716 48.9364 47.3171 48.9364 46.0099C48.9364 44.8845 48.3064 43.8772 47.3312 43.3398C47.4326 43.0334 47.5159 42.7243 47.5801 42.4157C48.099 39.9333 47.5079 37.3963 45.9159 35.2717C44.3496 33.1816 41.9954 31.7404 39.2868 31.2133C38.5583 31.0718 37.8157 31 37.0793 31C34.7561 31 32.4897 31.7226 30.697 33.035C28.851 34.3863 27.5887 36.3062 27.1425 38.4411C26.804 40.0599 26.9422 41.7296 27.5404 43.2963C26.5266 43.822 25.8553 44.8552 25.8553 46.0103C25.8553 47.3346 26.7419 48.4931 27.999 48.9167C28.4647 52.068 30.615 54.7816 33.6497 56.0462V56.3389C27.3463 57.7164 23 62.265 23 67.5804V69H28.4859V68.9975H29.0952V69H52V67.5804C52 62.2648 47.6536 57.7164 41.3502 56.3387ZM37.0793 33.8393C37.6199 33.8393 38.1671 33.8923 38.7054 33.9966C40.6856 34.3822 42.3995 35.4256 43.5307 36.9355C44.5856 38.3427 45.0106 39.9979 44.739 41.6223C43.2909 40.9701 41.3874 40.2809 39.3851 40.0163C35.6214 39.52 35.5611 39.3511 35.337 38.7236L34.6183 36.7174L32.9655 38.1285C32.7896 38.2777 31.4577 39.4071 29.921 40.6356C29.8785 40.0906 29.9139 39.5443 30.0274 39.0018C30.6526 36.0104 33.6183 33.8393 37.0793 33.8393ZM30.844 43.5763C31.876 42.7707 32.8956 41.9388 33.6333 41.3284C34.656 42.2182 36.2503 42.4685 38.9859 42.8295C40.8416 43.0744 42.6614 43.7913 43.9778 44.421V47.6204C43.9778 51.114 41.0321 53.9557 37.4112 53.9557C33.7898 53.9557 30.8441 51.1139 30.8441 47.6204V43.5763H30.844ZM36.5928 56.7602C37.2011 56.8119 37.806 56.8057 38.4072 56.7446V57.6211L37.4975 58.1076L36.5928 57.6227V56.7602ZM26.0932 66.159C26.769 62.9795 29.6628 60.3364 33.6497 59.266V59.2934L37.4949 61.3545L41.3503 59.2944V59.266C45.3376 60.3364 48.2319 62.9801 48.9068 66.1603L29.0832 66.1579V66.159H26.0932V66.159Z" fill="white"/>
<path d="M51.4701 76H23.53C22.685 76 22 75.1047 22 74C22 72.8953 22.685 72 23.53 72H51.47C52.315 72 53 72.8953 53 74C53 75.1047 52.3151 76 51.4701 76Z" fill="white"/>
<path d="M70.8455 8.9032H44.9071V4.20101C44.9071 1.88458 43.0433 0 40.7525 0H34.2474C31.9566 0 30.0929 1.88458 30.0929 4.20101V8.90315H4.15452C1.86368 8.90315 0 10.7877 0 13.1042V83.799C0 86.1154 1.86372 88 4.15452 88H70.8455C73.1363 88 75 86.1154 75 83.799V13.1042C74.9999 10.7877 73.1362 8.9032 70.8455 8.9032ZM33.1541 4.20101C33.1541 3.59144 33.6446 3.09545 34.2474 3.09545H40.7525C41.3553 3.09545 41.8458 3.59144 41.8458 4.20101V8.90315V11.9986V18.3517C41.8458 18.9613 41.3554 19.4572 40.7525 19.4572H34.2474C33.6446 19.4572 33.1541 18.9613 33.1541 18.3517V11.9987V8.9032V4.20101ZM71.9388 83.7991C71.9388 84.4086 71.4483 84.9046 70.8455 84.9046H4.15452C3.5517 84.9046 3.0612 84.4087 3.0612 83.7991V13.1042C3.0612 12.4946 3.5517 11.9987 4.15452 11.9987H30.0929V18.3518C30.0929 20.6682 31.9567 22.5528 34.2475 22.5528H40.7526C43.0434 22.5528 44.9071 20.6682 44.9071 18.3518V11.9987H70.8455C71.4483 11.9987 71.9388 12.4946 71.9388 13.1042V83.7991H71.9388Z" fill="white"/>
</svg>
