<svg width="86" height="88" viewBox="0 0 86 88" fill="none" xmlns="http://www.w3.org/2000/svg">
<path d="M75.0933 10H24.24C19.88 10 16.3333 13.5772 16.3333 17.9748V28.8276H10.9067C6.54667 28.8276 3 32.4048 3 36.8011V65.2321C3 69.6297 6.54667 73.2069 10.9067 73.2069H19V86.6552C19 87.2106 19.3387 87.7095 19.8533 87.9099C20.0093 87.9704 20.172 88 20.3333 88C20.7013 88 21.0627 87.8453 21.32 87.5602L34.256 73.2069H61.76C66.12 73.2069 69.6667 69.6297 69.6667 65.2321V54.3793H75.0933C79.4533 54.3793 83 50.8021 83 46.4045V17.9748C83 13.5772 79.4533 10 75.0933 10ZM67 65.2321C67 68.1463 64.6493 70.5172 61.76 70.5172H33.6667C33.2907 70.5172 32.932 70.6773 32.68 70.957L21.6667 83.1774V71.8621C21.6667 71.1197 21.0707 70.5172 20.3333 70.5172H10.9067C8.01733 70.5172 5.66667 68.1463 5.66667 65.2321V36.8011C5.66667 33.8882 8.01733 31.5172 10.9067 31.5172H61.76C62.844 31.5172 63.8507 31.8508 64.688 32.421C66.0813 33.3718 67 34.9802 67 36.8024V65.2321ZM80.3333 46.4045C80.3333 49.3187 77.9827 51.6897 75.0933 51.6897H69.6667V36.8024C69.6667 33.2306 67.3253 30.1993 64.1093 29.188C63.8613 29.11 63.6093 29.0441 63.352 28.9917C62.8373 28.8841 62.3053 28.8276 61.76 28.8276H19V17.9748C19 15.0606 21.3507 12.6897 24.24 12.6897H75.0933C77.9827 12.6897 80.3333 15.0606 80.3333 17.9748V46.4045Z" fill="white"/>
<path d="M18.375 45H37.625C38.3854 45 39 44.328 39 43.5C39 42.672 38.3854 42 37.625 42H18.375C17.6146 42 17 42.672 17 43.5C17 44.328 17.6146 45 18.375 45Z" fill="white"/>
<path d="M54.6552 50H18.3448C17.6011 50 17 50.672 17 51.5C17 52.328 17.6011 53 18.3448 53H54.6552C55.3989 53 56 52.328 56 51.5C56 50.672 55.3989 50 54.6552 50Z" fill="white"/>
<path d="M54.6552 59H18.3448C17.6011 59 17 59.448 17 60C17 60.552 17.6011 61 18.3448 61H54.6552C55.3989 61 56 60.552 56 60C56 59.448 55.3989 59 54.6552 59Z" fill="white"/>
</svg>
