<svg width="86" height="88" viewBox="0 0 86 88" fill="none" xmlns="http://www.w3.org/2000/svg">
<path d="M70.5721 16.7958H63.7387V12.8535C63.7387 12.0512 63.0995 11.401 62.3108 11.401H51.9801C51.0988 7.15609 47.3856 4 43.0001 4C38.6146 4 34.9015 7.15609 34.0201 11.401H23.6893C22.9007 11.401 22.2615 12.0512 22.2615 12.8534V16.7957H15.4279C14.6393 16.7957 14 17.446 14 18.2482V85.5475C14 86.3497 14.6393 87 15.4279 87H70.5721C71.3607 87 72 86.3497 72 85.5475V18.2483C72 17.446 71.3607 16.7958 70.5721 16.7958ZM25.1173 14.3059H35.2646C36.0198 14.3059 36.6441 13.708 36.6899 12.9414C36.8915 9.55651 39.6632 6.90502 43.0001 6.90502C46.337 6.90502 49.1087 9.55651 49.3103 12.9414C49.3562 13.708 49.9805 14.3059 50.7357 14.3059H60.883V23.1592H25.1173V14.3059ZM69.1442 84.095H16.8559V19.7008H22.2615V24.6117C22.2615 25.4139 22.9007 26.0642 23.6893 26.0642H62.3108C63.0995 26.0642 63.7387 25.4139 63.7387 24.6117V19.7008H69.1442V84.095Z" fill="white"/>
<path d="M32.4487 35.4292L26.3005 41.4608L23.5512 38.7636C22.9675 38.1914 22.0214 38.1914 21.4377 38.7636C20.8541 39.3362 20.8541 40.2644 21.4377 40.837L25.2437 44.5707C25.5355 44.8568 25.9179 45 26.3005 45C26.683 45 27.0654 44.8568 27.3573 44.5707L34.5623 37.5026C35.1459 36.93 35.1459 36.0018 34.5623 35.4292C33.9787 34.8569 33.0325 34.8569 32.4487 35.4292Z" fill="white"/>
<path d="M39.4538 39C38.6508 39 38 39.6715 38 40.5C38 41.3285 38.6509 42 39.4538 42H63.5462C64.3492 42 65 41.3285 65 40.5C65 39.6715 64.3492 39 63.5462 39H39.4538Z" fill="white"/>
<path d="M32.4487 52.4292L26.3005 58.4609L23.5512 55.7637C22.9675 55.1914 22.0214 55.1914 21.4377 55.7637C20.8541 56.3363 20.8541 57.2644 21.4377 57.8371L25.2437 61.5707C25.5355 61.8569 25.9179 62 26.3005 62C26.683 62 27.0654 61.8569 27.3573 61.5707L34.5623 54.5026C35.1459 53.93 35.1459 53.0019 34.5623 52.4292C33.9787 51.8569 33.0325 51.8569 32.4487 52.4292Z" fill="white"/>
<path d="M63.5462 55H39.4538C38.6508 55 38 55.6715 38 56.5C38 57.3285 38.6509 58 39.4538 58H63.5462C64.3492 58 65 57.3285 65 56.5C65 55.6715 64.3492 55 63.5462 55Z" fill="white"/>
<path d="M32.4487 68.4292L26.3005 74.4609L23.5512 71.7636C22.9675 71.1914 22.0214 71.1914 21.4377 71.7636C20.8541 72.3363 20.8541 73.2644 21.4377 73.8371L25.2437 77.5708C25.5355 77.8569 25.9179 78 26.3005 78C26.683 78 27.0654 77.8569 27.3573 77.5708L34.5623 70.5026C35.1459 69.9299 35.1459 69.0018 34.5623 68.4292C33.9787 67.8569 33.0325 67.8569 32.4487 68.4292Z" fill="white"/>
<path d="M63.5462 71H39.4538C38.6508 71 38 71.6715 38 72.5C38 73.3286 38.6509 74 39.4538 74H63.5462C64.3492 74 65 73.3286 65 72.5C65 71.6715 64.3492 71 63.5462 71Z" fill="white"/>
</svg>
