<svg width="86" height="88" viewBox="0 0 86 88" fill="none" xmlns="http://www.w3.org/2000/svg">
<path d="M52.7256 55.167L47.4339 54.315C46.9746 52.6589 46.3159 51.0706 45.4679 49.5726L48.6081 45.2265C49.0438 44.6236 48.9772 43.7936 48.4512 43.2678L43.7325 38.5487C43.2062 38.0221 42.3763 37.9562 41.7737 38.3918L37.4276 41.532C35.9296 40.684 34.3411 40.0256 32.6855 39.5662L31.833 34.2741C31.7146 33.5399 31.0809 33 30.3371 33H23.6629C22.9191 33 22.2854 33.5398 22.167 34.2741L21.3147 39.5659C19.6592 40.0253 18.0709 40.6837 16.5726 41.5319L12.2265 38.3917C11.6238 37.9563 10.7938 38.0225 10.2678 38.5484L5.54869 43.2675C5.02278 43.7936 4.95629 44.6236 5.39192 45.2265L8.53202 49.5725C7.68389 51.0709 7.02543 52.6592 6.56612 54.3149L1.27424 55.167C0.53995 55.2854 0 55.919 0 56.6629V63.3372C0 64.0811 0.539853 64.7147 1.27414 64.8331L6.56612 65.6854C7.02567 67.3411 7.68399 68.9293 8.53202 70.4275L5.39192 74.7737C4.95629 75.3765 5.02273 76.2064 5.54869 76.7325L10.2678 81.4516C10.7937 81.9775 11.6236 82.0437 12.2265 81.6083L16.5726 78.4679C18.0708 79.3159 19.6591 79.9744 21.3147 80.4339L22.167 85.7258C22.2853 86.4601 22.9191 87 23.6629 87H30.3371C31.0809 87 31.7146 86.4602 31.833 85.7258L32.6854 80.4337C34.3411 79.9744 35.9294 79.3159 37.4272 78.4681L41.7737 81.6083C42.3765 82.0439 43.2066 81.9777 43.7325 81.4516L48.4516 76.7327C48.9775 76.2066 49.0439 75.3767 48.6082 74.7738L45.4679 70.4275C46.3159 68.9297 46.9743 67.3415 47.4339 65.6854L52.7259 64.8331C53.4601 64.7147 54 64.081 54 63.3372V56.6629C54 55.919 53.4599 55.2854 52.7256 55.167ZM50.9698 62.0466L45.9671 62.8524C45.3561 62.9509 44.8663 63.411 44.7302 64.0149C44.2751 66.0325 43.4826 67.9441 42.3746 69.6965C42.0438 70.2198 42.0648 70.8918 42.4273 71.3936L45.3962 75.5025L42.5023 78.3962L38.3932 75.4274C37.8914 75.065 37.2194 75.044 36.6963 75.3748C34.9435 76.4828 33.0323 77.2751 31.0149 77.7297C30.4112 77.8661 29.9509 78.3558 29.8523 78.9669L29.0466 83.9697H24.9535L24.1478 78.9671C24.0493 78.3561 23.589 77.8663 22.9852 77.7302C20.9682 77.2753 19.0565 76.4828 17.3034 75.3748C16.7801 75.044 16.1081 75.065 15.6066 75.4274L11.4979 78.3962L8.60392 75.5023L11.5724 71.3936C11.935 70.8918 11.9559 70.22 11.6252 69.6967C10.5171 67.9436 9.7247 66.0319 9.26986 64.0149C9.13361 63.411 8.64387 62.9509 8.03276 62.8524L3.03029 62.0466V57.9535L8.03276 57.148C8.64397 57.0495 9.1338 56.5892 9.26996 55.9852C9.7245 53.9685 10.5169 52.057 11.6253 50.3034C11.956 49.7801 11.9351 49.1083 11.5725 48.6065L8.60401 44.4978L11.498 41.6038L15.6066 44.5727C16.1083 44.9352 16.7804 44.9561 17.3035 44.6253C19.057 43.5168 20.9686 42.7243 22.9851 42.2699C23.589 42.1337 24.0494 41.6438 24.1479 41.0327L24.9536 36.0303H29.0467L29.8524 41.0329C29.951 41.6439 30.4113 42.1339 31.015 42.27C33.0324 42.7247 34.9436 43.5172 36.6964 44.6253C37.2197 44.9561 37.8917 44.9352 38.3935 44.5727L42.5024 41.6038L45.3961 44.4978L42.4274 48.6067C42.0648 49.1085 42.0439 49.7805 42.3747 50.3038C43.483 52.0564 44.2754 53.9678 44.7303 55.9852C44.8664 56.5891 45.3562 57.0495 45.9672 57.148L50.9698 57.9535L50.9698 62.0466Z" fill="white"/>
<path d="M26.9998 45C18.7288 45 12 51.7289 12 60C12 68.2711 18.7288 75 26.9998 75C35.2709 75 42 68.2711 42 60C42 51.7289 35.2709 45 26.9998 45ZM26.9998 71.9446C20.4135 71.9446 15.0553 66.5863 15.0553 60C15.0553 53.4136 20.4135 48.0553 26.9998 48.0553C33.5863 48.0553 38.9447 53.4136 38.9447 60C38.9447 66.5863 33.5863 71.9446 26.9998 71.9446Z" fill="white"/>
<path d="M84.898 28.2543L81.2951 25.7815C81.502 24.4094 81.5554 23.0234 81.4543 21.6405L85.233 19.4623C85.8774 19.0907 86.1627 18.2962 85.9065 17.5867L83.9697 12.2263C83.7133 11.5166 82.9914 11.1031 82.2654 11.2482L78.0086 12.1033C77.2061 10.9853 76.2843 9.96748 75.2548 9.06223L76.42 4.78925C76.6184 4.0607 76.2707 3.2928 75.5988 2.97644L70.522 0.585913C69.8498 0.268711 69.0525 0.498235 68.6403 1.12621L66.2209 4.80927C64.8815 4.59907 63.5238 4.54362 62.1704 4.64676L60.0393 0.784102C59.6757 0.125185 58.8985 -0.166465 58.2043 0.0957284L52.9604 2.07554C52.2662 2.33754 51.861 3.07573 52.0037 3.81788L52.8406 8.16865C51.7467 8.98899 50.7507 9.9314 49.8651 10.984L45.6855 9.79272C44.9728 9.59047 44.2214 9.94553 43.9118 10.6322L41.5731 15.8218C41.2636 16.5086 41.4877 17.3236 42.1016 17.7452L45.7042 20.2183C45.4976 21.5906 45.4441 22.9765 45.5455 24.3591L41.767 26.5373C41.1226 26.9089 40.8372 27.7036 41.0935 28.4129L43.0303 33.7735C43.2866 34.4829 44.0097 34.8984 44.7348 34.7514L48.991 33.8962C49.7929 35.0138 50.7146 36.0316 51.7451 36.9375L50.5796 41.2102C50.3812 41.9386 50.7289 42.7069 51.4008 43.0233L56.4778 45.4137C57.15 45.7302 57.947 45.5012 58.3595 44.8731L60.779 41.1905C62.1181 41.4009 63.476 41.4561 64.8296 41.353L66.9607 45.216C67.2342 45.712 67.7428 46 68.2734 46C68.4475 46 68.6241 45.9691 68.7952 45.9043L74.0397 43.9244C74.7338 43.6624 75.139 42.9242 74.9962 42.1821L74.1595 37.8308C75.2527 37.011 76.2485 36.0685 77.1347 35.0157L81.3145 36.207C82.0272 36.4092 82.7787 36.0544 83.0882 35.3675L85.4265 30.1777C85.736 29.4909 85.5122 28.676 84.898 28.2543ZM80.8875 32.8868L76.9927 31.7768C76.3992 31.6084 75.7657 31.8248 75.3915 32.3245C74.3516 33.7128 73.0996 34.8974 71.6701 35.8456C71.1533 36.1882 70.8926 36.8175 71.0116 37.4352L71.7912 41.4889L68.9554 42.5597L66.9703 38.9609C66.7008 38.4724 66.1966 38.1771 65.6579 38.1771C65.5921 38.1771 65.5257 38.1814 65.459 38.1904C63.78 38.4189 62.0539 38.3493 60.3921 37.9873C59.7904 37.8561 59.1704 38.1126 58.827 38.6353L56.5728 42.0662L53.8279 40.7739L54.9136 36.7926C55.0788 36.1863 54.8668 35.5381 54.3778 35.1556C53.0196 34.0928 51.8608 32.813 50.9332 31.3518C50.5983 30.8237 49.9829 30.5575 49.3782 30.6787L45.413 31.4754L44.3655 28.5766L47.8859 26.5474C48.4222 26.2381 48.7206 25.6266 48.6394 25.0028C48.4153 23.2751 48.4821 21.5325 48.8383 19.8235C48.9666 19.2078 48.7155 18.5744 48.2046 18.2235L44.8478 15.9193L46.1124 13.1132L50.007 14.2232C50.6 14.3915 51.2343 14.1753 51.6085 13.6754C52.6471 12.2879 53.8993 11.1033 55.33 10.1542C55.8467 9.81164 56.1073 9.18233 55.9883 8.56468L55.2088 4.51134L58.0445 3.44063L60.0297 7.03917C60.332 7.58743 60.9297 7.89282 61.5409 7.80964C63.22 7.58184 64.9457 7.65104 66.6079 8.01292C67.2093 8.14379 67.8294 7.88743 68.1729 7.36497L70.427 3.93338L73.1719 5.22586L72.0862 9.20759C71.9209 9.81407 72.1331 10.4623 72.6221 10.8446C73.979 11.9063 75.1379 13.186 76.0661 14.6482C76.4015 15.1763 77.0171 15.4419 77.6209 15.3214L81.5869 14.5246L82.6344 17.4232L79.1137 19.4524C78.5773 19.7617 78.2789 20.3731 78.3601 20.997C78.5845 22.7254 78.5176 24.468 78.1612 26.1763C78.0326 26.792 78.2836 27.4256 78.7949 27.7765L82.1519 30.0807L80.8875 32.8868Z" fill="white"/>
<path d="M63.4988 10C62.0223 10 60.5659 10.2718 59.1696 10.808C52.7043 13.2907 49.3871 20.7799 51.7747 27.5029C53.5796 32.5849 58.292 35.9996 63.501 36C63.5006 36 63.5015 36 63.501 36C64.977 36 66.4342 35.7282 67.8302 35.192C74.2954 32.7093 77.613 25.2201 75.2253 18.4975C73.42 13.4149 68.7076 10 63.4988 10ZM66.8025 32.2983C65.7364 32.7078 64.626 32.9152 63.5019 32.9152C59.5293 32.915 55.9344 30.3105 54.5576 26.4343C52.7365 21.3069 55.2665 15.595 60.1975 13.7017C61.2634 13.2922 62.374 13.0848 63.4988 13.0848C67.4714 13.0848 71.0654 15.6895 72.4424 19.566C74.2633 24.6931 71.7331 30.4047 66.8025 32.2983Z" fill="white"/>
</svg>
